<?xml version="1.0" encoding="UTF-8"?><svg id="Layer_1" xmlns="http://www.w3.org/2000/svg" viewBox="0 0 40 45"><defs><style>.cls-1{fill:#fff;}</style></defs><path class="cls-1" d="M40,18.45c-3.93,0-7.77-1.2-10.96-3.45v15.71c0,7.89-6.51,14.29-14.52,14.28C6.49,45,0,38.6,0,30.7c0-7.89,6.51-14.29,14.52-14.28,.67,0,1.33,.05,1.99,.14v7.9c-3.51-1.09-7.25,.83-8.36,4.29s.85,7.14,4.36,8.23c3.51,1.09,7.25-.83,8.36-4.29,.2-.64,.31-1.3,.31-1.97V0h7.86c0,.65,.05,1.31,.17,1.95h0c.55,2.9,2.29,5.45,4.81,7.05,1.77,1.16,3.86,1.77,5.98,1.77v7.68Z"/></svg>